<svg width="76" height="76" viewBox="0 0 76 76" fill="none" xmlns="http://www.w3.org/2000/svg">
<path d="M38 38V9.5" stroke="black" stroke-width="2" stroke-linecap="round" stroke-linejoin="round"/>
<path d="M62.6818 23.75L13.3184 52.25" stroke="black" stroke-width="2" stroke-linecap="round" stroke-linejoin="round"/>
<path d="M9.97525 43.2103C8.7413 36.5324 9.92852 29.6334 13.3237 23.7521C16.7189 17.8709 22.0996 13.3927 28.4996 11.1218V32.5153L9.97525 43.2103Z" stroke="black" stroke-width="2" stroke-linecap="round" stroke-linejoin="round"/>
<path d="M37.9999 9.5C42.9931 9.50092 47.8985 10.8137 52.2248 13.3068C56.5511 15.8 60.1464 19.386 62.6508 23.7058C65.1552 28.0256 66.4806 32.9276 66.4945 37.9208C66.5084 42.9141 65.2102 47.8233 62.7298 52.157C60.2495 56.4906 56.6741 60.0966 52.3618 62.6137C48.0494 65.1309 43.1514 66.4709 38.1582 66.4995C33.1651 66.5282 28.252 65.2445 23.911 62.777C19.57 60.3096 15.9535 56.7449 13.4236 52.44" stroke="black" stroke-width="2" stroke-linecap="round" stroke-linejoin="round"/>
</svg>
